<svg xmlns="http://www.w3.org/2000/svg" viewBox="0 0 1200 750" width="1200" height="750" role="img"><defs><linearGradient id="s" x1="0" y1="0" x2="0" y2="1"><stop offset="0" stop-color="#f2a98f"/><stop offset=".6" stop-color="#f9d3a5"/><stop offset="1" stop-color="#ffe9b8"/></linearGradient></defs><rect width="1200" height="750" fill="url(#s)"/><circle cx="786" cy="227" r="150" fill="#fff5c8" opacity=".28"/><circle cx="786" cy="227" r="58" fill="#fff2b0"/><g><rect x="70" y="510.5" width="184.8" height="99.5" fill="#f3d9b8"/>
<polygon points="62,510.5 162.4,465.725 262.8,510.5" fill="#b5573f"/>
<rect x="92.176" y="548.31" width="36.96" height="29.849999999999998" rx="3" fill="#7b8fa8"/>
<rect x="195.66400000000002" y="548.31" width="36.96" height="29.849999999999998" rx="3" fill="#7b8fa8"/>
<path d="M143.92000000000002 610 v-41.79 a18.48 18.48 0 0 1 36.96 0 v41.79z" fill="#5c6f7a"/></g><g><rect x="293.9" y="539" width="142.2" height="71" fill="#f3d9b8"/>
<polygon points="285.9,539 365,507.05 444.09999999999997,539" fill="#b5573f"/>
<rect x="310.964" y="565.98" width="28.439999999999998" height="21.3" rx="3" fill="#7b8fa8"/>
<rect x="390.596" y="565.98" width="28.439999999999998" height="21.3" rx="3" fill="#7b8fa8"/>
<path d="M350.78 610 v-29.82 a14.219999999999999 14.219999999999999 0 0 1 28.439999999999998 0 v29.82z" fill="#5c6f7a"/></g><g><rect x="467" y="539.8" width="167.9" height="70.2" fill="#f3d9b8"/>
<polygon points="459,539.8 550.95,508.2099999999999 642.9,539.8" fill="#b5573f"/>
<rect x="487.148" y="566.476" width="33.580000000000005" height="21.06" rx="3" fill="#7b8fa8"/>
<rect x="581.172" y="566.476" width="33.580000000000005" height="21.06" rx="3" fill="#7b8fa8"/>
<path d="M534.16 610 v-29.484 a16.790000000000003 16.790000000000003 0 0 1 33.580000000000005 0 v29.484z" fill="#7a4a3a"/></g><g><rect x="681.5" y="528.9" width="169" height="81.1" fill="#f3d9b8"/>
<polygon points="673.5,528.9 766,492.405 858.5,528.9" fill="#b5573f"/>
<rect x="701.78" y="559.718" width="33.800000000000004" height="24.33" rx="3" fill="#7b8fa8"/>
<rect x="796.42" y="559.718" width="33.800000000000004" height="24.33" rx="3" fill="#7b8fa8"/>
<path d="M749.1 610 v-34.062 a16.900000000000002 16.900000000000002 0 0 1 33.800000000000004 0 v34.062z" fill="#7a4a3a"/></g><g><rect x="880.5" y="506.6" width="164.8" height="103.4" fill="#f3d9b8"/>
<polygon points="872.5,506.6 962.9,460.07000000000005 1053.3,506.6" fill="#b5573f"/>
<rect x="900.276" y="545.892" width="32.96" height="31.02" rx="3" fill="#7b8fa8"/>
<rect x="992.5640000000001" y="545.892" width="32.96" height="31.02" rx="3" fill="#7b8fa8"/>
<path d="M946.42 610 v-43.428 a16.48 16.48 0 0 1 32.96 0 v43.428z" fill="#5c6f7a"/></g><g><rect x="1077.7" y="511.7" width="182.1" height="98.3" fill="#f3d9b8"/>
<polygon points="1069.7,511.7 1168.75,467.465 1267.8,511.7" fill="#b5573f"/>
<rect x="1099.5520000000001" y="549.054" width="36.42" height="29.49" rx="3" fill="#7b8fa8"/>
<rect x="1201.528" y="549.054" width="36.42" height="29.49" rx="3" fill="#7b8fa8"/>
<path d="M1150.54 610 v-41.285999999999994 a18.21 18.21 0 0 1 36.42 0 v41.285999999999994z" fill="#5c6f7a"/></g><g transform="translate(790 300)"><rect width="300" height="260" rx="22" fill="#fff" stroke="#e5ded2" stroke-width="3"/><rect width="300" height="64" rx="22" fill="#c9473c"/><rect y="40" width="300" height="24" fill="#c9473c"/><rect x="24" y="90" width="36" height="26" rx="6" fill="#efe7da"/><rect x="78" y="90" width="36" height="26" rx="6" fill="#efe7da"/><rect x="132" y="90" width="36" height="26" rx="6" fill="#efe7da"/><rect x="186" y="90" width="36" height="26" rx="6" fill="#efe7da"/><rect x="240" y="90" width="36" height="26" rx="6" fill="#efe7da"/><rect x="24" y="130" width="36" height="26" rx="6" fill="#efe7da"/><rect x="78" y="130" width="36" height="26" rx="6" fill="#efe7da"/><rect x="132" y="130" width="36" height="26" rx="6" fill="#2f8f5f"/><rect x="186" y="130" width="36" height="26" rx="6" fill="#efe7da"/><rect x="240" y="130" width="36" height="26" rx="6" fill="#efe7da"/><rect x="24" y="170" width="36" height="26" rx="6" fill="#efe7da"/><rect x="78" y="170" width="36" height="26" rx="6" fill="#efe7da"/><rect x="132" y="170" width="36" height="26" rx="6" fill="#efe7da"/><rect x="186" y="170" width="36" height="26" rx="6" fill="#efe7da"/><rect x="240" y="170" width="36" height="26" rx="6" fill="#efe7da"/><rect x="24" y="210" width="36" height="26" rx="6" fill="#efe7da"/><rect x="78" y="210" width="36" height="26" rx="6" fill="#efe7da"/><rect x="132" y="210" width="36" height="26" rx="6" fill="#efe7da"/><rect x="186" y="210" width="36" height="26" rx="6" fill="#efe7da"/><rect x="240" y="210" width="36" height="26" rx="6" fill="#efe7da"/></g><circle cx="1010" cy="520" r="44" fill="#2f8f5f"/><path d="M990 520 l14 16 l28 -34" stroke="#fff" stroke-width="10" fill="none" stroke-linecap="round" stroke-linejoin="round"/><g transform="translate(600 250)"><path d="M0 120 C-60 40 -60 -30 0 -30 C60 -30 60 40 0 120Z" fill="#c9473c"/><circle cy="30" r="22" fill="#fff"/></g><ellipse cx="600" cy="378" rx="46" ry="10" fill="#000" opacity=".15"/><rect x="0" y="560" width="1200" height="200" fill="#d8a47c"/><path d="M0 575 Q300 550 600 575 T1200 565 V760 H0Z" fill="#d8a47c"/></svg>