<svg xmlns="http://www.w3.org/2000/svg" viewBox="0 0 1200 750" width="1200" height="750" role="img"><defs><linearGradient id="s" x1="0" y1="0" x2="0" y2="1"><stop offset="0" stop-color="#6db6ee"/><stop offset=".6" stop-color="#a9d8f5"/><stop offset="1" stop-color="#eaf6fb"/></linearGradient></defs><rect width="1200" height="750" fill="url(#s)"/><g fill="#fff" opacity=".7"><ellipse cx="452" cy="65.6" rx="90" ry="22"/><ellipse cx="497" cy="51.6" rx="55" ry="22"/></g><g fill="#fff" opacity=".7"><ellipse cx="787.6" cy="108.7" rx="90" ry="22"/><ellipse cx="832.6" cy="94.7" rx="55" ry="22"/></g><g fill="#fff" opacity=".7"><ellipse cx="493.6" cy="132" rx="90" ry="22"/><ellipse cx="538.6" cy="118" rx="55" ry="22"/></g><g><rect x="380" y="450" width="440" height="190" fill="#f6e3c4"/>
<polygon points="372,450 600,364.5 828,450" fill="#b8553a"/>
<rect x="432.8" y="522.2" width="88" height="57" rx="3" fill="#7b8fa8"/>
<rect x="679.2" y="522.2" width="88" height="57" rx="3" fill="#7b8fa8"/>
<path d="M556 640 v-79.8 a44 44 0 0 1 88 0 v79.8z" fill="#5c6f7a"/></g><rect x="430" y="520" width="80" height="60" rx="3" fill="#8fb4cf"/><rect x="690" y="520" width="80" height="60" rx="3" fill="#8fb4cf"/><path d="M130 640 q13.799999999999999 -115 0 -230" stroke="#7a5a45" stroke-width="9" fill="none"/><path d="M130 410 Q78.3 364 26.5 437.6" stroke="#4f8a55" stroke-width="7" fill="none" stroke-linecap="round"/><path d="M130 410 Q85.2 364 40.4 416.9" stroke="#4f8a55" stroke-width="7" fill="none" stroke-linecap="round"/><path d="M130 410 Q104.1 364 78.2 401.7" stroke="#4f8a55" stroke-width="7" fill="none" stroke-linecap="round"/><path d="M130 410 Q130 364 130 396.2" stroke="#4f8a55" stroke-width="7" fill="none" stroke-linecap="round"/><path d="M130 410 Q155.9 364 181.8 401.7" stroke="#4f8a55" stroke-width="7" fill="none" stroke-linecap="round"/><path d="M130 410 Q174.8 364 219.6 416.9" stroke="#4f8a55" stroke-width="7" fill="none" stroke-linecap="round"/><path d="M130 410 Q181.8 364 233.5 437.6" stroke="#4f8a55" stroke-width="7" fill="none" stroke-linecap="round"/><path d="M1070 650 q15.6 -130 0 -260" stroke="#7a5a45" stroke-width="9" fill="none"/><path d="M1070 390 Q1011.5 338 953 421.2" stroke="#4f8a55" stroke-width="7" fill="none" stroke-linecap="round"/><path d="M1070 390 Q1019.3 338 968.7 397.8" stroke="#4f8a55" stroke-width="7" fill="none" stroke-linecap="round"/><path d="M1070 390 Q1040.8 338 1011.5 380.7" stroke="#4f8a55" stroke-width="7" fill="none" stroke-linecap="round"/><path d="M1070 390 Q1070 338 1070 374.4" stroke="#4f8a55" stroke-width="7" fill="none" stroke-linecap="round"/><path d="M1070 390 Q1099.3 338 1128.5 380.7" stroke="#4f8a55" stroke-width="7" fill="none" stroke-linecap="round"/><path d="M1070 390 Q1120.7 338 1171.3 397.8" stroke="#4f8a55" stroke-width="7" fill="none" stroke-linecap="round"/><path d="M1070 390 Q1128.5 338 1187 421.2" stroke="#4f8a55" stroke-width="7" fill="none" stroke-linecap="round"/><path d="M960 625 q10.2 -85 0 -170" stroke="#7a5a45" stroke-width="9" fill="none"/><path d="M960 455 Q921.8 421 883.5 475.4" stroke="#4f8a55" stroke-width="7" fill="none" stroke-linecap="round"/><path d="M960 455 Q926.9 421 893.7 460.1" stroke="#4f8a55" stroke-width="7" fill="none" stroke-linecap="round"/><path d="M960 455 Q940.9 421 921.8 448.9" stroke="#4f8a55" stroke-width="7" fill="none" stroke-linecap="round"/><path d="M960 455 Q960 421 960 444.8" stroke="#4f8a55" stroke-width="7" fill="none" stroke-linecap="round"/><path d="M960 455 Q979.1 421 998.3 448.9" stroke="#4f8a55" stroke-width="7" fill="none" stroke-linecap="round"/><path d="M960 455 Q993.1 421 1026.3 460.1" stroke="#4f8a55" stroke-width="7" fill="none" stroke-linecap="round"/><path d="M960 455 Q998.3 421 1036.5 475.4" stroke="#4f8a55" stroke-width="7" fill="none" stroke-linecap="round"/><g transform="translate(850 520) rotate(-25)" fill="none" stroke="#f0b429" stroke-width="14" stroke-linecap="round"><circle r="42"/><path d="M42 0 H190 M150 0 v34 M180 0 v28"/></g><rect x="0" y="560" width="1200" height="200" fill="#dbb287"/><path d="M0 575 Q300 550 600 575 T1200 565 V760 H0Z" fill="#dbb287"/></svg>