<svg xmlns="http://www.w3.org/2000/svg" viewBox="0 0 1200 750" width="1200" height="750" role="img"><defs><linearGradient id="s" x1="0" y1="0" x2="0" y2="1"><stop offset="0" stop-color="#4a3f86"/><stop offset=".6" stop-color="#d9728a"/><stop offset="1" stop-color="#ffbf6e"/></linearGradient></defs><rect width="1200" height="750" fill="url(#s)"/><circle cx="850" cy="240" r="150" fill="#fff5c8" opacity=".28"/><circle cx="850" cy="240" r="58" fill="#fff2b0"/><polygon points="-40,760 -40,422 33.5,373.6 79.6,415.8 136.5,399.8 195,362.5 270.6,352.8 334.5,364.8 374.6,402.7 448.4,417.9 489,381.2 536.3,404.4 591.1,382.8 650.8,416.2 725.3,442.2 789.5,408.1 855.2,440.3 903.1,445.3 945,419.5 989.7,385.7 1065.7,435.2 1131.8,408.5 1192.7,407.8 1240,760" fill="#4f2a55"/><polygon points="-40,452 33.5,403.5 79.6,447.7 136.5,437 195,400 270.6,389.5 334.5,395.9 374.6,434.5 448.4,450.2 489,410.4 536.3,439.7 591.1,415.3 650.8,446.6 725.3,470.6 789.5,441.8 855.2,474.9 903.1,483.2 945,455 989.7,421.4 1065.7,470.4 1131.8,445 1192.7,440.7 1192.7,415.8 1131.8,416.5 1065.7,443.2 989.7,393.7 945,427.5 903.1,453.3 855.2,448.3 789.5,416.1 725.3,450.2 650.8,424.2 591.1,390.8 536.3,412.4 489,389.2 448.4,425.9 374.6,410.7 334.5,372.8 270.6,360.8 195,370.5 136.5,407.8 79.6,423.8 33.5,381.6 -40,430" fill="#b05b57" opacity=".55"/><polygon points="-40,760 -40,477.8 29.8,506.6 76.8,472 123.3,493.4 195.8,499.6 236.5,491.3 300.5,477 358.3,503.7 431.3,499.3 500.8,504.2 565.8,511.4 616.4,529.6 694.2,494.4 754.5,517.4 797.7,520.5 843.9,523.6 890.6,533 946.5,516.6 1011.1,493.4 1079.1,513.1 1147.4,467.6 1223.4,462.1 1240,760" fill="#7d3f58"/><polygon points="-40,508 29.8,543.4 76.8,503.4 123.3,522.9 195.8,531.4 236.5,528.6 300.5,514.9 358.3,533.1 431.3,536 500.8,535.6 565.8,546.6 616.4,557.7 694.2,523.4 754.5,548.3 797.7,558.5 843.9,553.2 890.6,570.7 946.5,546.5 1011.1,531 1079.1,545.6 1147.4,496.5 1223.4,496.7 1223.4,470.1 1147.4,475.6 1079.1,521.1 1011.1,501.4 946.5,524.6 890.6,541 843.9,531.6 797.7,528.5 754.5,525.4 694.2,502.4 616.4,537.6 565.8,519.4 500.8,512.2 431.3,507.3 358.3,511.7 300.5,485 236.5,499.3 195.8,507.6 123.3,501.4 76.8,480 29.8,514.6 -40,485.8" fill="#b05b57" opacity=".55"/><rect x="300" y="590" width="600" height="26" rx="8" fill="#7a5a45"/><rect x="360" y="616" width="16" height="110" fill="#6a4a38"/><rect x="824" y="616" width="16" height="110" fill="#6a4a38"/><rect x="430" y="510" width="190" height="80" rx="8" fill="#2b2b3a"/><rect x="440" y="518" width="170" height="64" rx="4" fill="#8fd0ea"/><rect x="660" y="540" width="80" height="50" rx="6" fill="#fff"/><circle cx="800" cy="560" r="26" fill="#c9473c"/><g transform="translate(850 520) rotate(-25)" fill="none" stroke="#f0b429" stroke-width="14" stroke-linecap="round"><circle r="42"/><path d="M42 0 H190 M150 0 v34 M180 0 v28"/></g><rect x="0" y="560" width="1200" height="200" fill="#9c6459"/><path d="M0 575 Q300 550 600 575 T1200 565 V760 H0Z" fill="#9c6459"/></svg>