<svg xmlns="http://www.w3.org/2000/svg" viewBox="0 0 1200 750" width="1200" height="750" role="img"><defs><linearGradient id="s" x1="0" y1="0" x2="0" y2="1"><stop offset="0" stop-color="#4a3f86"/><stop offset=".6" stop-color="#d9728a"/><stop offset="1" stop-color="#ffbf6e"/></linearGradient></defs><rect width="1200" height="750" fill="url(#s)"/><circle cx="229" cy="189" r="150" fill="#fff5c8" opacity=".28"/><circle cx="229" cy="189" r="58" fill="#fff2b0"/><g><rect x="70" y="535.3" width="154.8" height="74.7" fill="#e8bfa0"/>
<polygon points="62,535.3 147.4,501.68499999999995 232.8,535.3" fill="#8b3f4a"/>
<rect x="88.576" y="563.686" width="30.960000000000004" height="22.41" rx="3" fill="#ffd776"/>
<rect x="175.264" y="563.686" width="30.960000000000004" height="22.41" rx="3" fill="#ffd776"/>
<path d="M131.92000000000002 610 v-31.374 a15.480000000000002 15.480000000000002 0 0 1 30.960000000000004 0 v31.374z" fill="#5c6f7a"/></g><g><rect x="267.4" y="530.8" width="154.6" height="79.2" fill="#e8bfa0"/>
<polygon points="259.4,530.8 344.7,495.15999999999997 430,530.8" fill="#8b3f4a"/>
<rect x="285.952" y="560.896" width="30.92" height="23.76" rx="3" fill="#ffd776"/>
<rect x="372.52799999999996" y="560.896" width="30.92" height="23.76" rx="3" fill="#ffd776"/>
<path d="M329.24 610 v-33.264 a15.46 15.46 0 0 1 30.92 0 v33.264z" fill="#5c6f7a"/></g><g><rect x="454.9" y="518.7" width="184.2" height="91.3" fill="#e8bfa0"/>
<polygon points="446.9,518.7 547,477.61500000000007 647.0999999999999,518.7" fill="#8b3f4a"/>
<rect x="477.00399999999996" y="553.394" width="36.839999999999996" height="27.389999999999997" rx="3" fill="#ffd776"/>
<rect x="580.156" y="553.394" width="36.839999999999996" height="27.389999999999997" rx="3" fill="#ffd776"/>
<path d="M528.5799999999999 610 v-38.346 a18.419999999999998 18.419999999999998 0 0 1 36.839999999999996 0 v38.346z" fill="#7a4a3a"/></g><g><rect x="686.7" y="518.4" width="163.2" height="91.6" fill="#e8bfa0"/>
<polygon points="678.7,518.4 768.3000000000001,477.17999999999995 857.9000000000001,518.4" fill="#8b3f4a"/>
<rect x="706.284" y="553.208" width="32.64" height="27.479999999999997" rx="3" fill="#ffd776"/>
<rect x="797.676" y="553.208" width="32.64" height="27.479999999999997" rx="3" fill="#ffd776"/>
<path d="M751.98 610 v-38.471999999999994 a16.32 16.32 0 0 1 32.64 0 v38.471999999999994z" fill="#5c6f7a"/></g><g><rect x="891.6" y="510.8" width="178.3" height="99.2" fill="#e8bfa0"/>
<polygon points="883.6,510.8 980.75,466.16 1077.9,510.8" fill="#8b3f4a"/>
<rect x="912.996" y="548.496" width="35.660000000000004" height="29.759999999999998" rx="3" fill="#ffd776"/>
<rect x="1012.844" y="548.496" width="35.660000000000004" height="29.759999999999998" rx="3" fill="#ffd776"/>
<path d="M962.9200000000001 610 v-41.664 a17.830000000000002 17.830000000000002 0 0 1 35.660000000000004 0 v41.664z" fill="#7a4a3a"/></g><path d="M130 640 q13.799999999999999 -115 0 -230" stroke="#7a5a45" stroke-width="9" fill="none"/><path d="M130 410 Q78.3 364 26.5 437.6" stroke="#4c6a58" stroke-width="7" fill="none" stroke-linecap="round"/><path d="M130 410 Q85.2 364 40.4 416.9" stroke="#4c6a58" stroke-width="7" fill="none" stroke-linecap="round"/><path d="M130 410 Q104.1 364 78.2 401.7" stroke="#4c6a58" stroke-width="7" fill="none" stroke-linecap="round"/><path d="M130 410 Q130 364 130 396.2" stroke="#4c6a58" stroke-width="7" fill="none" stroke-linecap="round"/><path d="M130 410 Q155.9 364 181.8 401.7" stroke="#4c6a58" stroke-width="7" fill="none" stroke-linecap="round"/><path d="M130 410 Q174.8 364 219.6 416.9" stroke="#4c6a58" stroke-width="7" fill="none" stroke-linecap="round"/><path d="M130 410 Q181.8 364 233.5 437.6" stroke="#4c6a58" stroke-width="7" fill="none" stroke-linecap="round"/><path d="M1070 650 q15.6 -130 0 -260" stroke="#7a5a45" stroke-width="9" fill="none"/><path d="M1070 390 Q1011.5 338 953 421.2" stroke="#4c6a58" stroke-width="7" fill="none" stroke-linecap="round"/><path d="M1070 390 Q1019.3 338 968.7 397.8" stroke="#4c6a58" stroke-width="7" fill="none" stroke-linecap="round"/><path d="M1070 390 Q1040.8 338 1011.5 380.7" stroke="#4c6a58" stroke-width="7" fill="none" stroke-linecap="round"/><path d="M1070 390 Q1070 338 1070 374.4" stroke="#4c6a58" stroke-width="7" fill="none" stroke-linecap="round"/><path d="M1070 390 Q1099.3 338 1128.5 380.7" stroke="#4c6a58" stroke-width="7" fill="none" stroke-linecap="round"/><path d="M1070 390 Q1120.7 338 1171.3 397.8" stroke="#4c6a58" stroke-width="7" fill="none" stroke-linecap="round"/><path d="M1070 390 Q1128.5 338 1187 421.2" stroke="#4c6a58" stroke-width="7" fill="none" stroke-linecap="round"/><path d="M960 625 q10.2 -85 0 -170" stroke="#7a5a45" stroke-width="9" fill="none"/><path d="M960 455 Q921.8 421 883.5 475.4" stroke="#4c6a58" stroke-width="7" fill="none" stroke-linecap="round"/><path d="M960 455 Q926.9 421 893.7 460.1" stroke="#4c6a58" stroke-width="7" fill="none" stroke-linecap="round"/><path d="M960 455 Q940.9 421 921.8 448.9" stroke="#4c6a58" stroke-width="7" fill="none" stroke-linecap="round"/><path d="M960 455 Q960 421 960 444.8" stroke="#4c6a58" stroke-width="7" fill="none" stroke-linecap="round"/><path d="M960 455 Q979.1 421 998.3 448.9" stroke="#4c6a58" stroke-width="7" fill="none" stroke-linecap="round"/><path d="M960 455 Q993.1 421 1026.3 460.1" stroke="#4c6a58" stroke-width="7" fill="none" stroke-linecap="round"/><path d="M960 455 Q998.3 421 1036.5 475.4" stroke="#4c6a58" stroke-width="7" fill="none" stroke-linecap="round"/><g transform="translate(160 600)"><rect width="250" height="110" rx="10" fill="#f4efe6"/><rect x="250" y="30" width="90" height="80" rx="10" fill="#c9473c"/><rect x="270" y="42" width="48" height="30" rx="5" fill="#cfe6f5"/><circle cx="70" cy="112" r="24" fill="#2b2b3a"/><circle cx="280" cy="112" r="24" fill="#2b2b3a"/><rect x="24" y="30" width="150" height="14" rx="5" fill="#c9473c" opacity=".8"/></g><rect x="0" y="560" width="1200" height="200" fill="#9c6459"/><path d="M0 575 Q300 550 600 575 T1200 565 V760 H0Z" fill="#9c6459"/></svg>